<svg width="65" height="65" viewBox="0 0 65 65" fill="none" xmlns="http://www.w3.org/2000/svg">
<circle cx="32.5" cy="32.5" r="32.5" fill="#161433"/>
<g clip-path="url(#clip0_30_4)">
<path d="M32.75 33C37.7211 33 41.75 28.9711 41.75 24C41.75 19.0289 37.7211 15 32.75 15C27.7789 15 23.75 19.0289 23.75 24C23.75 28.9711 27.7789 33 32.75 33ZM39.05 35.25H37.8758C36.3148 35.9672 34.5781 36.375 32.75 36.375C30.9219 36.375 29.1922 35.9672 27.6242 35.25H26.45C21.2328 35.25 17 39.4828 17 44.7V47.625C17 49.4883 18.5117 51 20.375 51H45.125C46.9883 51 48.5 49.4883 48.5 47.625V44.7C48.5 39.4828 44.2672 35.25 39.05 35.25Z" fill="white"/>
</g>
<defs>
<clipPath id="clip0_30_4">
<rect width="36" height="36" fill="white" transform="translate(15 11)"/>
</clipPath>
</defs>
</svg>
