<svg width="973" height="705" viewBox="0 0 973 705" fill="none" xmlns="http://www.w3.org/2000/svg">
<g clip-path="url(#clip0_5_25)">
<path d="M144.246 499.754C143.448 498.543 142.394 497.522 141.16 496.763C139.925 496.004 138.539 495.526 137.1 495.362C135.661 495.197 134.204 495.351 132.83 495.813C131.457 496.274 130.202 497.032 129.152 498.032L97.8667 481.849L99.8115 500.08L129.223 512.653C131.016 514.308 133.354 515.247 135.792 515.291C138.23 515.335 140.599 514.481 142.451 512.891C144.303 511.301 145.509 509.085 145.839 506.664C146.17 504.243 145.603 501.784 144.246 499.754Z" fill="#A0616A"/>
<path d="M116.443 507.092C115.877 507.353 115.262 507.49 114.64 507.497C114.017 507.504 113.4 507.379 112.828 507.131L83.1114 494.212C72.9506 489.797 64.7361 481.833 59.996 471.802L44.3732 438.754C43.2202 437.269 42.3706 435.572 41.8728 433.758C41.3749 431.944 41.2388 430.05 41.472 428.183C41.7053 426.317 42.3034 424.515 43.2321 422.88C44.1609 421.245 45.4021 419.81 46.8847 418.656C48.3674 417.503 50.0624 416.653 51.8729 416.157C53.6833 415.66 55.5737 415.526 57.4359 415.762C59.2982 415.998 61.0957 416.6 62.7257 417.532C64.3558 418.465 65.7864 419.711 66.9357 421.198L94.3967 472.258L119.753 491.453C120.479 492.005 121.018 492.767 121.298 493.637C121.577 494.506 121.584 495.44 121.317 496.313L118.828 504.369C118.56 505.232 118.037 505.994 117.327 506.552C117.054 506.766 116.758 506.948 116.443 507.092Z" fill="#CCCCCC"/>
<path d="M43.6856 399.888C57.0499 399.888 67.8838 389.03 67.8838 375.637C67.8838 362.244 57.0499 351.387 43.6856 351.387C30.3212 351.387 19.4873 362.244 19.4873 375.637C19.4873 389.03 30.3212 399.888 43.6856 399.888Z" fill="#A0616A"/>
<path d="M53.4873 693.76L65.5653 693.759L71.3121 647.069L53.4844 647.07L53.4873 693.76Z" fill="#A0616A"/>
<path d="M88.8603 704.998L50.8987 705L50.8981 690.302L74.1927 690.3C78.0826 690.3 81.8133 691.849 84.564 694.605C87.3147 697.362 88.8602 701.1 88.8603 704.998Z" fill="#2F2E41"/>
<path d="M14.0782 693.76L26.1561 693.759L31.9029 647.069L14.0752 647.07L14.0782 693.76Z" fill="#A0616A"/>
<path d="M49.4512 704.998L11.4896 705L11.4889 690.302L34.7835 690.3C38.6734 690.3 42.4041 691.849 45.1548 694.605C47.9056 697.362 49.451 701.1 49.4512 704.998Z" fill="#2F2E41"/>
<path d="M9.85974 680.395C9.44355 679.919 9.13375 679.359 8.95108 678.753C8.76842 678.147 8.71711 677.509 8.80061 676.882L29.9482 517.932L82.4891 526.874L88.0964 523.502L73.5963 674.315C73.4757 675.333 73.0084 676.278 72.2732 676.991C71.538 677.704 70.58 678.141 69.5606 678.229L53.6514 679.557C53.0189 679.61 52.3825 679.527 51.7851 679.312C51.1876 679.097 50.6432 678.756 50.1887 678.312C49.7341 677.868 49.3799 677.332 49.1502 676.739C48.9204 676.146 48.8204 675.51 48.8569 674.875L52.9758 603.053C52.9831 602.931 52.9449 602.81 52.8687 602.715C52.7925 602.619 52.6837 602.556 52.5633 602.536C52.4429 602.516 52.3195 602.542 52.217 602.608C52.1145 602.675 52.0402 602.777 52.0084 602.895L31.6308 678.625C31.3759 679.568 30.8188 680.4 30.0453 680.994C29.2717 681.588 28.3247 681.911 27.3502 681.912H13.1955C12.5637 681.912 11.9393 681.777 11.3639 681.515C10.7886 681.254 10.2758 680.872 9.85974 680.395Z" fill="#2F2E41"/>
<path d="M46.2467 529.058C45.6436 528.511 44.8684 528.192 44.0555 528.158C43.2427 528.124 42.4437 528.377 41.7973 528.872L31.2929 537.06C30.7212 537.507 30.0489 537.806 29.3349 537.932C28.6208 538.058 27.8869 538.006 27.1976 537.781C26.5082 537.556 25.8844 537.165 25.381 536.642C24.8776 536.12 24.5099 535.481 24.3101 534.783C19.1577 516.699 7.48404 471.179 10.3599 439.141C11.99 420.981 27.6379 407.179 45.2419 408.337C57.2771 409.141 65.1948 416.099 68.7751 429.017C77.5659 460.733 87.2267 518.91 89.0741 530.251C89.2199 531.13 89.0969 532.034 88.7213 532.843C88.3456 533.651 87.7349 534.327 86.9691 534.781C81.9991 537.772 76.3205 539.373 70.5238 539.419C63.5098 539.419 55.0998 536.972 46.2467 529.058Z" fill="#CCCCCC"/>
<path d="M50.2104 540.34C50.328 538.893 50.1277 537.438 49.6235 536.078C49.1194 534.717 48.3237 533.483 47.2924 532.464C46.2611 531.445 45.0194 530.665 43.6547 530.179C42.29 529.692 40.8356 529.512 39.3938 529.65L24.7416 497.568L15.0454 513.116L30.4459 541.198C30.8378 543.61 32.099 545.794 33.9905 547.337C35.8819 548.879 38.2722 549.673 40.7084 549.567C43.1447 549.461 45.4576 548.463 47.2088 546.763C48.9601 545.062 50.0281 542.777 50.2104 540.34Z" fill="#A0616A"/>
<path d="M23.8139 528.919C23.2082 528.774 22.6398 528.502 22.1457 528.122C21.6516 527.742 21.2427 527.263 20.9458 526.714L5.5179 498.17C0.241788 488.412 -1.31776 477.065 1.12935 466.24L9.18702 430.574C9.19433 428.693 9.57145 426.832 10.2968 425.098C11.0222 423.363 12.0817 421.788 13.4145 420.464C14.7474 419.14 16.3277 418.092 18.0649 417.381C19.8021 416.669 21.6623 416.307 23.5391 416.317C25.4158 416.326 27.2724 416.706 29.0026 417.434C30.7328 418.163 32.3027 419.226 33.6227 420.563C34.9426 421.9 35.9866 423.485 36.6951 425.227C37.4035 426.968 37.7625 428.833 37.7515 430.714L27.9174 487.874L36.0492 518.661C36.2804 519.544 36.2354 520.477 35.9202 521.334C35.605 522.19 35.035 522.93 34.287 523.451L27.3678 528.251C26.6255 528.765 25.7444 529.041 24.8419 529.041C24.4957 529.041 24.1506 529 23.8139 528.919Z" fill="#CCCCCC"/>
<path opacity="0.2" d="M35.7885 454.82L26.9214 492.339L39.7294 523.935L30.8623 493.327L35.7885 454.82Z" fill="black"/>
<path d="M29.877 395.579C27.7245 395.619 25.5854 395.231 23.5834 394.437C22.7024 394.097 21.788 393.818 20.9087 393.477C13.1435 390.471 8.02818 382.183 7.84498 373.842C7.66177 365.502 11.9718 357.406 18.3718 352.071C24.7718 346.736 33.0614 343.997 41.3621 343.364C50.3033 342.681 60.3714 344.954 65.3676 352.416C66.6975 354.402 67.6276 356.812 66.8395 359.211C66.6035 359.934 66.1819 360.583 65.6171 361.092C63.3858 363.082 61.1614 361.586 58.8868 361.454C55.7604 361.272 52.9524 363.808 51.9431 366.779C50.9339 369.75 51.3782 373.021 52.1931 376.051C52.8139 377.875 53.2052 379.768 53.3581 381.689C53.4239 382.652 53.2431 383.616 52.833 384.489C52.4229 385.363 51.797 386.117 51.0147 386.68C49.0611 387.863 46.4955 387.178 44.5407 385.997C42.5859 384.815 40.8969 383.172 38.7855 382.303C36.674 381.434 33.8372 381.626 32.6082 383.554C32.2177 384.256 31.9533 385.021 31.8273 385.814C30.7255 390.844 30.9788 390.548 29.877 395.579Z" fill="#2F2E41"/>
<path d="M746.148 227.566H148.113C145.835 227.568 143.651 228.476 142.041 230.09C140.43 231.704 139.524 233.893 139.522 236.176V642.295C139.524 644.578 140.43 646.767 142.041 648.381C143.651 649.995 145.835 650.903 148.113 650.905H746.148C747.39 650.905 748.617 650.635 749.745 650.113C750.873 649.591 751.874 648.831 752.68 647.884C752.748 647.809 752.81 647.73 752.867 647.647C753.38 647.018 753.795 646.316 754.098 645.563C754.531 644.528 754.752 643.417 754.748 642.295V389.482H752.295V642.295C752.296 643.496 751.943 644.671 751.281 645.672C750.691 646.553 749.892 647.272 748.955 647.765C748.087 648.214 747.125 648.448 746.148 648.446H148.113C146.486 648.444 144.926 647.796 143.775 646.643C142.624 645.489 141.977 643.926 141.975 642.295V236.176C141.977 234.545 142.624 232.981 143.775 231.828C144.926 230.675 146.486 230.026 148.113 230.024H746.148C747.777 230.024 749.339 230.672 750.491 231.825C751.644 232.979 752.293 234.543 752.295 236.176V290.747H754.748V236.176C754.746 233.891 753.839 231.701 752.226 230.087C750.613 228.473 748.427 227.566 746.148 227.566Z" fill="#3F3D56"/>
<path d="M753.515 262.077H140.745V264.538H753.515V262.077Z" fill="#3F3D56"/>
<path d="M161.621 253.413C165.69 253.413 168.989 250.107 168.989 246.029C168.989 241.951 165.69 238.645 161.621 238.645C157.552 238.645 154.253 241.951 154.253 246.029C154.253 250.107 157.552 253.413 161.621 253.413Z" fill="#CCCCCC"/>
<path d="M182.804 253.413C186.873 253.413 190.172 250.107 190.172 246.029C190.172 241.951 186.873 238.645 182.804 238.645C178.735 238.645 175.436 241.951 175.436 246.029C175.436 250.107 178.735 253.413 182.804 253.413Z" fill="#CCCCCC"/>
<path d="M203.987 253.413C208.056 253.413 211.355 250.107 211.355 246.029C211.355 241.951 208.056 238.645 203.987 238.645C199.917 238.645 196.619 241.951 196.619 246.029C196.619 250.107 199.917 253.413 203.987 253.413Z" fill="#CCCCCC"/>
<path d="M351.979 601.127C349.443 601.115 346.949 600.469 344.725 599.248C342.5 598.028 340.614 596.27 339.238 594.135C337.862 591.999 337.04 589.554 336.844 587.02C336.649 584.485 337.088 581.942 338.121 579.62L355.674 540.373C341.849 528.119 330.787 513.056 323.22 496.187C315.654 479.317 311.758 461.026 311.79 442.53C311.79 370.27 370.451 311.481 442.557 311.481C514.662 311.481 573.323 370.27 573.323 442.53C573.323 514.79 514.662 573.579 442.557 573.579C429.943 573.566 417.398 571.714 405.317 568.082L360.519 598.475C358.002 600.196 355.027 601.12 351.979 601.127ZM442.557 329.767C419.22 329.754 396.458 337.016 377.425 350.548C358.392 364.079 344.03 383.209 336.332 405.287C328.634 427.364 327.979 451.295 334.46 473.762C340.941 496.228 354.235 516.118 372.5 530.674L378.03 535.093L359.144 577.326L402.485 547.921L406.765 549.361C422.224 554.566 438.629 556.34 454.841 554.56C471.053 552.779 486.684 547.488 500.653 539.051C514.621 530.614 526.592 519.235 535.735 505.701C544.879 492.167 550.976 476.802 553.605 460.672C556.234 444.542 555.332 428.031 550.961 412.285C546.59 396.539 538.855 381.933 528.291 369.481C517.728 357.029 504.589 347.027 489.785 340.17C474.981 333.312 458.866 329.763 442.557 329.767Z" fill="#3F3D56"/>
<path d="M442.557 454.721C452.634 454.721 460.803 446.534 460.803 436.435C460.803 426.336 452.634 418.149 442.557 418.149C432.48 418.149 424.311 426.336 424.311 436.435C424.311 446.534 432.48 454.721 442.557 454.721Z" fill="#3F3D56"/>
<path d="M390.858 454.721C400.936 454.721 409.105 446.534 409.105 436.435C409.105 426.336 400.936 418.149 390.858 418.149C380.781 418.149 372.612 426.336 372.612 436.435C372.612 446.534 380.781 454.721 390.858 454.721Z" fill="#3F3D56"/>
<path d="M494.255 454.721C504.333 454.721 512.502 446.534 512.502 436.435C512.502 426.336 504.333 418.149 494.255 418.149C484.178 418.149 476.009 426.336 476.009 436.435C476.009 446.534 484.178 454.721 494.255 454.721Z" fill="#3F3D56"/>
<path d="M901.398 364.06H727.998C725.908 364.06 723.903 363.228 722.425 361.746C720.947 360.265 720.116 358.256 720.116 356.161C720.116 354.066 720.947 352.057 722.425 350.576C723.903 349.094 725.908 348.262 727.998 348.262H901.398C903.489 348.262 905.494 349.094 906.972 350.576C908.45 352.057 909.28 354.066 909.28 356.161C909.28 358.256 908.45 360.265 906.972 361.746C905.494 363.228 903.489 364.06 901.398 364.06Z" fill="#CCCCCC"/>
<path d="M788.097 330.49H727.998C725.908 330.49 723.903 329.658 722.425 328.176C720.947 326.695 720.116 324.686 720.116 322.591C720.116 320.496 720.947 318.487 722.425 317.006C723.903 315.524 725.908 314.692 727.998 314.692H788.097C790.187 314.692 792.192 315.524 793.67 317.006C795.148 318.487 795.979 320.496 795.979 322.591C795.979 324.686 795.148 326.695 793.67 328.176C792.192 329.658 790.187 330.49 788.097 330.49Z" fill="#CCCCCC"/>
<path d="M649.459 373.685C667.959 373.685 682.957 358.655 682.957 340.115C682.957 321.574 667.959 306.545 649.459 306.545C630.958 306.545 615.961 321.574 615.961 340.115C615.961 358.655 630.958 373.685 649.459 373.685Z" fill="#6C63FF"/>
<path d="M918.78 288.772H606.462C602.022 288.778 597.765 290.549 594.625 293.695C591.486 296.842 589.719 301.107 589.713 305.557V374.672C589.719 379.122 591.486 383.388 594.625 386.534C597.765 389.68 602.022 391.451 606.462 391.457H918.78C923.22 391.451 927.476 389.68 930.616 386.534C933.756 383.388 935.522 379.122 935.528 374.672V305.557C935.522 301.107 933.756 296.842 930.616 293.695C927.476 290.549 923.22 288.778 918.78 288.772ZM933.558 374.672C933.553 378.599 931.995 382.363 929.224 385.139C926.454 387.916 922.698 389.478 918.78 389.483H606.462C602.544 389.478 598.788 387.916 596.017 385.139C593.247 382.363 591.688 378.599 591.683 374.672V305.557C591.688 301.631 593.247 297.866 596.017 295.09C598.788 292.314 602.544 290.752 606.462 290.747H918.78C922.698 290.752 926.454 292.314 929.224 295.09C931.995 297.866 933.553 301.631 933.558 305.557V374.672Z" fill="#3F3D56"/>
<path d="M933.558 316.418C946.073 316.418 956.218 306.251 956.218 293.709C956.218 281.167 946.073 271 933.558 271C921.043 271 910.897 281.167 910.897 293.709C910.897 306.251 921.043 316.418 933.558 316.418Z" fill="#6C63FF"/>
<path d="M932.861 306.48C932.77 306.389 932.697 306.28 932.647 306.16C932.598 306.04 932.573 305.912 932.573 305.782V280.648C932.573 280.386 932.677 280.135 932.861 279.95C933.046 279.765 933.297 279.661 933.558 279.661C933.819 279.661 934.07 279.765 934.254 279.95C934.439 280.135 934.543 280.386 934.543 280.648V305.782C934.543 305.977 934.485 306.168 934.377 306.331C934.269 306.493 934.115 306.62 933.935 306.694C933.755 306.769 933.557 306.789 933.366 306.751C933.175 306.712 932.999 306.618 932.861 306.48Z" fill="white"/>
<path d="M920.321 293.913C920.183 293.775 920.09 293.599 920.052 293.408C920.014 293.216 920.033 293.018 920.108 292.838C920.182 292.657 920.309 292.503 920.471 292.394C920.633 292.286 920.823 292.228 921.018 292.228H946.098C946.359 292.228 946.61 292.332 946.794 292.517C946.979 292.702 947.083 292.953 947.083 293.215C947.083 293.477 946.979 293.728 946.794 293.913C946.61 294.098 946.359 294.202 946.098 294.202H921.018C920.888 294.203 920.76 294.177 920.641 294.128C920.521 294.078 920.413 294.005 920.321 293.913Z" fill="white"/>
<path d="M960.685 595.55H913.384C913.384 596.913 864.635 598.019 864.635 598.019C863.87 598.596 863.172 599.258 862.556 599.993C860.705 602.206 859.693 605.004 859.699 607.892V609.867C859.7 613.14 860.998 616.278 863.307 618.593C865.617 620.907 868.748 622.208 872.014 622.209H960.685C963.95 622.206 967.081 620.905 969.39 618.591C971.699 616.277 972.997 613.139 973 609.867V607.892C972.996 604.62 971.697 601.484 969.388 599.17C967.08 596.856 963.95 595.555 960.685 595.55Z" fill="#3F3D56"/>
<path d="M923.241 621.719H910.433V704.656H923.241V621.719Z" fill="#3F3D56"/>
<path d="M959.695 704.206C959.695 705.592 940.286 704.742 916.345 704.742C892.403 704.742 872.995 705.592 872.995 704.206C872.995 702.819 892.403 691.821 916.345 691.821C940.286 691.821 959.695 702.819 959.695 704.206Z" fill="#3F3D56"/>
<path d="M920.946 484.405C936.182 484.405 948.533 472.028 948.533 456.759C948.533 441.491 936.182 429.113 920.946 429.113C905.711 429.113 893.36 441.491 893.36 456.759C893.36 472.028 905.711 484.405 920.946 484.405Z" fill="#2F2E41"/>
<path d="M852.296 693.297L840.217 693.296L834.47 646.606L852.297 646.607L852.296 693.297Z" fill="#FFB8B8"/>
<path d="M831.588 689.838H854.883V704.536H816.921C816.921 700.638 818.467 696.899 821.217 694.143C823.968 691.386 827.698 689.838 831.588 689.838Z" fill="#2F2E41"/>
<path d="M833.44 686.54L821.916 682.916L830.381 636.643L847.39 641.993L833.44 686.54Z" fill="#FFB8B8"/>
<path d="M814.717 677.028L836.943 684.018L832.552 698.042L796.332 686.651C797.496 682.932 800.088 679.828 803.536 678.023C806.984 676.219 811.006 675.861 814.717 677.028Z" fill="#2F2E41"/>
<path d="M928.336 587.457C928.057 585.104 927.555 582.783 926.838 580.525L924.582 577.682L918.71 570.296L918.454 570.306C918.02 570.326 916.217 570.425 913.429 570.642H913.4C911.675 570.78 909.567 570.958 907.173 571.185C906.542 571.254 905.882 571.313 905.203 571.382V581.69H917.518C918.117 581.691 918.694 581.91 919.144 582.306C919.593 582.702 919.884 583.248 919.961 583.843C919.971 583.951 919.981 584.05 919.981 584.159C919.981 584.813 919.721 585.441 919.259 585.904C918.798 586.367 918.171 586.627 917.518 586.627H845.99C845.079 587.234 844.204 587.893 843.369 588.602C840.849 590.557 839.034 593.281 838.197 596.363C834.02 614.767 826.404 649.087 824.157 659.168C823.995 659.928 824.032 660.717 824.265 661.458C824.498 662.199 824.919 662.866 825.488 663.394C825.907 663.786 826.399 664.091 826.936 664.293L835.823 667.63C836.188 667.765 836.569 667.855 836.956 667.897C837.005 667.897 837.044 667.906 837.094 667.906C837.185 667.915 837.277 667.918 837.369 667.916C838.268 667.913 839.145 667.637 839.885 667.127C840.625 666.616 841.194 665.893 841.517 665.053L848.532 646.609L859.34 618.173L863.616 606.927C868.572 608.092 910.149 617.314 924.07 602.455C925.443 600.991 926.526 599.278 927.262 597.409C928.434 594.231 928.803 590.812 928.336 587.457Z" fill="#2F2E41"/>
<path d="M940.395 590.142C940.178 589.263 939.932 588.355 939.646 587.437L931.518 577.208L931.262 577.218C930.749 577.247 928.316 577.376 924.582 577.682C920.346 578.037 914.424 578.61 907.774 579.508C907.577 579.528 907.37 579.558 907.173 579.587C906.523 579.676 905.863 579.765 905.203 579.864V581.69H917.518C918.117 581.691 918.694 581.91 919.144 582.306C919.593 582.702 919.884 583.248 919.961 583.843C919.971 583.952 919.981 584.05 919.981 584.159C919.981 584.813 919.721 585.441 919.259 585.904C918.798 586.367 918.171 586.627 917.518 586.627H873.99C872.089 587.249 870.256 587.901 868.503 588.602C859.301 592.255 852.414 597.044 851.005 603.274C850.532 605.367 850.01 607.668 849.458 610.116C847.409 619.22 844.916 630.367 842.66 640.497V640.507C842.197 642.6 841.734 644.634 841.291 646.609C839.409 655.1 837.813 662.298 836.965 666.08C836.946 666.188 836.926 666.287 836.906 666.396V666.415C836.808 667.18 836.903 667.958 837.182 668.676L837.192 668.686V668.696C837.463 669.384 837.904 669.993 838.473 670.464C838.854 670.778 839.283 671.028 839.744 671.204L848.631 674.541C849.126 674.727 849.649 674.824 850.177 674.828C850.918 674.829 851.647 674.643 852.296 674.285C853.227 673.779 853.947 672.956 854.325 671.964L873.458 621.649L876.424 613.839C881.38 615.004 922.956 624.216 936.878 609.366C939.628 606.383 941.197 602.496 941.292 598.436C941.389 595.643 941.087 592.85 940.395 590.142Z" fill="#2F2E41"/>
<path d="M939.301 503.038C939.144 502.85 938.976 502.662 938.799 502.485C936.175 499.72 932.934 497.617 929.343 496.349C925.752 495.081 921.912 494.683 918.138 495.188C914.846 495.621 911.585 496.265 908.375 497.113C904.228 498.182 900.432 500.316 897.36 503.304C894.967 505.629 893.083 508.427 891.826 511.521C890.569 514.614 889.968 517.935 890.059 521.274C890.099 522.627 890.108 524.009 890.089 525.411C890.089 526.063 890.079 526.724 890.07 527.386H899.784C900.205 527.385 900.625 527.434 901.035 527.534C902.22 527.818 903.276 528.493 904.032 529.451C904.788 530.41 905.2 531.595 905.203 532.816V578.748C905.863 578.936 906.523 579.123 907.173 579.321C907.38 579.39 907.577 579.449 907.774 579.508C908 579.577 908.227 579.647 908.444 579.716C910.444 580.338 912.398 580.996 914.306 581.69H917.518C918.116 581.691 918.694 581.91 919.144 582.306C919.593 582.702 919.884 583.248 919.961 583.843C920.631 584.109 921.281 584.376 921.922 584.643C924.198 585.59 926.355 586.538 928.336 587.457C931.006 588.681 933.38 589.846 935.37 590.863C935.996 591.182 936.688 591.351 937.39 591.357C938.312 591.354 939.209 591.056 939.952 590.507C940.106 590.394 940.254 590.272 940.395 590.142C940.922 589.647 941.321 589.03 941.556 588.345C941.791 587.66 941.856 586.928 941.745 586.212C940.728 578.457 940.431 570.623 940.858 562.812C941.134 556.246 941.725 549.512 942.494 543.006C942.907 539.481 943.37 536.025 943.853 532.698C944.316 529.518 944.809 526.467 945.291 523.584C945.925 519.929 945.714 516.176 944.676 512.614C943.638 509.053 941.799 505.777 939.301 503.038Z" fill="#6C63FF"/>
<path d="M898.917 503.847C898.411 503.63 897.891 503.448 897.36 503.304C894.735 502.596 891.942 502.857 889.493 504.041C887.044 505.225 885.101 507.251 884.02 509.752L877.251 525.411L876.404 527.386H899.784C900.205 527.385 900.625 527.434 901.035 527.534L901.823 525.707L904.818 518.776C906.008 516.012 906.055 512.887 904.948 510.089C903.842 507.29 901.673 505.045 898.917 503.847Z" fill="#6C63FF"/>
<path d="M919.938 487.478C933.302 487.478 944.136 476.621 944.136 463.228C944.136 449.835 933.302 438.977 919.938 438.977C906.574 438.977 895.74 449.835 895.74 463.228C895.74 476.621 906.574 487.478 919.938 487.478Z" fill="#FFB8B8"/>
<path d="M895.304 451.313C906.766 458.325 919.688 462.592 933.064 463.782L929.084 459.003C931.982 460.076 935.031 460.683 938.119 460.801C941.203 460.753 944.434 459.563 946.184 457.017C946.965 455.752 947.429 454.317 947.536 452.833C947.643 451.349 947.391 449.862 946.8 448.497C945.587 445.775 943.699 443.409 941.316 441.625C937.092 438.276 932.106 436.026 926.804 435.077C921.502 434.127 916.048 434.507 910.927 436.182C907.415 437.234 904.27 439.256 901.851 442.017C899.557 444.853 895.141 447.379 896.315 450.835L895.304 451.313Z" fill="#2F2E41"/>
<path d="M924.006 431.743C916.374 423.987 907.138 418.001 896.949 414.208C890.408 411.78 883.289 410.28 876.451 411.659C869.613 413.038 863.147 417.778 861.239 424.502C859.679 430 861.29 435.92 863.71 441.095C866.131 446.271 869.363 451.07 871.321 456.439C873.319 461.916 873.919 467.807 873.069 473.577C872.218 479.347 869.943 484.812 866.45 489.477C862.957 494.142 858.357 497.859 853.067 500.29C847.778 502.721 841.966 503.79 836.159 503.399C842.878 504.302 849.071 507.466 855.638 509.151C862.205 510.835 869.956 510.721 874.836 506.006C880 501.017 880.103 492.906 879.854 485.723C879.482 475.045 879.111 464.366 878.74 453.688C878.551 448.242 878.389 442.622 880.349 437.539C882.309 432.457 886.966 428.006 892.403 428.052C896.524 428.087 900.171 430.589 903.476 433.056C906.78 435.523 910.278 438.155 914.383 438.522C918.487 438.889 923.174 435.845 922.867 431.727L924.006 431.743Z" fill="#2F2E41"/>
<path d="M943.853 532.698L930.04 533.073L929.035 542.798L928.809 545.05L907.173 554.785L905.203 555.674V572.982L907.173 572.419L913.4 570.642H913.429L940.858 562.812L941.173 562.723C943.389 562.082 945.34 560.741 946.735 558.9C948.131 557.059 948.896 554.816 948.917 552.504L948.986 541.021L949.045 532.56L943.853 532.698Z" fill="#FFB8B8"/>
<path d="M948.346 513.464C948.162 510.458 946.794 507.648 944.542 505.653C942.291 503.658 939.341 502.641 936.341 502.825C933.341 503.01 930.538 504.381 928.547 506.637C926.556 508.894 925.541 511.85 925.725 514.856L927.232 539.501C927.273 540.149 927.456 540.781 927.768 541.351C928.079 541.921 928.512 542.415 929.036 542.798C929.868 543.421 930.895 543.725 931.932 543.657L942.494 543.006L945.696 542.808C946.279 542.78 946.851 542.633 947.375 542.376C947.9 542.12 948.368 541.76 948.75 541.317C948.835 541.224 948.914 541.125 948.986 541.021C949.613 540.181 949.92 539.145 949.853 538.099L948.346 513.464Z" fill="#6C63FF"/>
<path d="M908.444 579.716H907.173V579.587C906.523 579.676 905.863 579.765 905.203 579.864V581.69H914.306C912.395 580.999 910.441 580.341 908.444 579.716ZM908.444 579.716H907.173V579.587C906.523 579.676 905.863 579.765 905.203 579.864V581.69H914.306C912.395 580.999 910.441 580.341 908.444 579.716ZM917.518 579.716H907.173V532.816C907.17 531.211 906.646 529.65 905.682 528.368C904.717 527.086 903.363 526.152 901.823 525.707C901.162 525.508 900.475 525.408 899.784 525.411H812.099C810.14 525.414 808.262 526.194 806.876 527.583C805.491 528.971 804.712 530.853 804.709 532.816V581.197C804.71 583.161 805.489 585.044 806.875 586.432C808.26 587.821 810.139 588.601 812.099 588.602H917.518C918.61 588.6 919.662 588.195 920.474 587.465C921.287 586.735 921.802 585.73 921.922 584.643C921.942 584.482 921.952 584.321 921.952 584.159C921.95 582.981 921.482 581.852 920.651 581.019C919.82 580.186 918.694 579.718 917.518 579.716ZM919.981 584.159C919.981 584.813 919.721 585.441 919.26 585.904C918.798 586.367 918.171 586.627 917.518 586.627H812.099C810.662 586.626 809.284 586.054 808.268 585.036C807.252 584.018 806.681 582.637 806.68 581.197V532.816C806.681 531.376 807.252 529.996 808.268 528.977C809.284 527.959 810.662 527.387 812.099 527.386H899.784C900.206 527.385 900.626 527.434 901.035 527.534C902.221 527.818 903.276 528.493 904.032 529.451C904.788 530.41 905.201 531.595 905.203 532.816V581.69H917.518C918.117 581.691 918.695 581.91 919.144 582.306C919.594 582.702 919.884 583.248 919.962 583.843C919.971 583.951 919.981 584.05 919.981 584.159ZM908.444 579.716H907.173V579.587C906.523 579.676 905.863 579.765 905.203 579.864V581.69H914.306C912.395 580.999 910.441 580.341 908.444 579.716Z" fill="#3F3D56"/>
<path d="M855.938 562.932C859.203 562.932 861.85 560.28 861.85 557.008C861.85 553.736 859.203 551.084 855.938 551.084C852.673 551.084 850.027 553.736 850.027 557.008C850.027 560.28 852.673 562.932 855.938 562.932Z" fill="#6C63FF"/>
<path d="M327.937 70.4656C327.916 70.9167 327.929 71.3689 327.978 71.8179L297.04 97.8386L287.814 94.491L280.953 107.784L301.124 117.407L334.947 79.37C336.654 79.6805 338.416 79.4626 339.997 78.7452C341.579 78.0278 342.905 76.845 343.799 75.354C344.693 73.8631 345.113 72.1347 345.003 70.3986C344.893 68.6626 344.259 67.0013 343.184 65.6355C342.108 64.2698 340.644 63.2644 338.985 62.7531C337.326 62.2418 335.551 62.2487 333.896 62.7731C332.241 63.2974 330.784 64.3142 329.72 65.6884C328.655 67.0625 328.034 68.7288 327.937 70.4656Z" fill="#FFB8B8"/>
<path d="M286.444 114.161L256.568 103.354C253.825 102.362 251.588 100.318 250.349 97.6732C249.109 95.028 248.969 91.9978 249.959 89.2491C250.949 86.5004 252.988 84.2584 255.628 83.0164C258.267 81.7743 261.291 81.6339 264.034 82.626L293.909 93.433C294.362 93.5966 294.778 93.8481 295.134 94.173C295.49 94.4978 295.778 94.8897 295.982 95.3262C296.187 95.7628 296.304 96.2355 296.326 96.7172C296.348 97.199 296.276 97.6805 296.112 98.1341L291.135 111.953C290.804 112.869 290.124 113.615 289.245 114.029C288.366 114.443 287.358 114.49 286.444 114.161Z" fill="#CCCCCC"/>
<path d="M264.563 219.442L274.548 219.441L279.298 180.845L264.562 180.846L264.563 219.442Z" fill="#FFB8B8"/>
<path d="M293.805 228.732L262.424 228.733L262.424 216.583L281.68 216.582C284.895 216.582 287.979 217.862 290.253 220.14C292.527 222.419 293.805 225.509 293.805 228.732Z" fill="#2F2E41"/>
<path d="M239.888 206.515L248.055 212.271L274.093 183.437L262.039 174.944L239.888 206.515Z" fill="#FFB8B8"/>
<path d="M257.49 228.996L231.819 210.909L238.793 200.969L254.545 212.068C257.175 213.922 258.963 216.747 259.516 219.921C260.068 223.096 259.339 226.36 257.49 228.996Z" fill="#2F2E41"/>
<path d="M286.411 149.916C286.411 149.916 311.328 146.97 306.856 163.174C302.384 179.378 252.549 193.373 252.549 193.373L286.411 149.916Z" fill="#FFB8B8"/>
<path d="M269.261 67.2357C280.309 67.2357 289.264 58.2607 289.264 47.1895C289.264 36.1183 280.309 27.1432 269.261 27.1432C258.214 27.1432 249.258 36.1183 249.258 47.1895C249.258 58.2607 258.214 67.2357 269.261 67.2357Z" fill="#FFB8B8"/>
<path d="M205.47 190.054C194.088 176.772 190.105 156.388 208.257 139.434C212.739 135.349 217.815 131.971 223.311 129.415L237.94 88.4145C239.459 84.133 242.246 80.4177 245.927 77.7642C249.608 75.1106 254.008 73.6451 258.542 73.563C262.944 73.3726 267.297 74.5526 271.002 76.9409C274.708 79.3292 277.585 82.8088 279.239 86.9016C281.025 91.0655 281.23 95.7406 279.813 100.045C275.458 113.636 269.739 126.75 262.744 139.184L263.5 145.249L300.478 148.542L300.133 149.104C299.953 149.398 281.855 177.031 258.704 195.372C250.788 201.644 242.602 204.243 234.876 204.242C223.161 204.241 212.506 198.264 205.47 190.054Z" fill="#CCCCCC"/>
<path d="M201.98 53.4786C205.519 49.2525 207.037 43.7248 208.258 38.3453C210.19 29.8335 211.685 21.032 215.978 13.4362C220.27 5.84042 228.158 -0.453413 236.855 0.0256625C245.503 0.502003 252.494 7.47441 256.205 15.4076C257.104 15.0578 258.066 14.9011 259.029 14.9477C259.992 14.9942 260.934 15.2429 261.795 15.6777C264.47 17.1456 265.47 21.3177 263.244 23.4064C265.585 22.2889 268.135 21.678 270.728 21.6132C273.321 21.5484 275.898 22.0313 278.292 23.0304C281.371 24.3439 284.028 26.483 285.972 29.2124C287.916 31.9418 289.072 35.1557 289.311 38.5005C289.404 39.8581 289.218 41.2204 288.764 42.503C288.311 43.7856 287.599 44.9612 286.674 45.9569C282.836 49.9164 277.408 48.5506 272.581 47.542C268.022 46.5893 262.47 46.3321 259.902 50.6851C258.889 52.4989 258.606 54.6314 259.109 56.6474C260.093 60.9929 263.304 64.0197 266.418 66.9164L266.928 67.8648C255.931 70.0138 243.922 62.4875 241.038 51.6381C238.153 40.7887 244.832 28.2723 255.438 24.6529C254.732 24.675 254.033 24.5077 253.414 24.1685C252.794 23.8292 252.276 23.3303 251.913 22.7232C251.55 22.1161 251.355 21.423 251.349 20.7153C251.343 20.0076 251.525 19.3111 251.877 18.6977C248.942 17.0495 245.619 16.2188 242.255 16.2918C236.777 16.652 232.036 20.56 229.185 25.2618C226.334 29.9637 225.043 35.4212 223.735 40.7647C222.427 46.1083 221.012 51.5541 217.964 56.13C215.852 59.2993 213.031 61.9301 209.725 63.8126C206.418 65.6951 202.719 66.7772 198.921 66.9724C195.124 67.1676 191.333 66.4706 187.852 64.937C184.371 63.4034 181.296 61.0756 178.872 58.1395C182.703 60.0009 187.036 60.553 191.21 59.7112C195.383 58.8694 199.166 56.6801 201.98 53.4786Z" fill="#2F2E41"/>
<path d="M348.898 108.109C364.956 108.109 377.974 95.0634 377.974 78.9705C377.974 62.8777 364.956 49.8318 348.898 49.8318C332.84 49.8318 319.822 62.8777 319.822 78.9705C319.822 95.0634 332.84 108.109 348.898 108.109Z" fill="#6C63FF"/>
<path d="M348.004 95.3579C347.886 95.2404 347.793 95.1008 347.73 94.9471C347.666 94.7933 347.634 94.6285 347.634 94.4621V62.2121C347.634 61.8761 347.767 61.5539 348.004 61.3163C348.241 61.0788 348.563 60.9453 348.898 60.9453C349.233 60.9453 349.555 61.0788 349.792 61.3163C350.029 61.5539 350.162 61.8761 350.162 62.2121V94.4621C350.162 94.7127 350.088 94.9576 349.949 95.1659C349.81 95.3742 349.613 95.5365 349.382 95.6324C349.151 95.7283 348.896 95.7534 348.651 95.7046C348.406 95.6557 348.181 95.5351 348.004 95.3579Z" fill="white"/>
<path d="M331.914 79.2329C331.737 79.0558 331.616 78.83 331.568 78.5843C331.519 78.3386 331.544 78.0839 331.64 77.8524C331.735 77.6209 331.897 77.4231 332.105 77.2839C332.313 77.1447 332.557 77.0704 332.808 77.0703H364.988C365.323 77.0703 365.645 77.2038 365.882 77.4414C366.119 77.679 366.252 78.0012 366.252 78.3371C366.252 78.6731 366.119 78.9953 365.882 79.2329C365.645 79.4704 365.323 79.6039 364.988 79.6039H332.808C332.641 79.6042 332.477 79.5715 332.324 79.5079C332.17 79.4442 332.031 79.3508 331.914 79.2329Z" fill="white"/>
<path d="M328.94 98.4605C328.729 98.8595 328.549 99.2745 328.403 99.7018L289.363 110.077L282.431 103.117L270.583 112.227L284.76 129.529L331.508 109.506C332.922 110.515 334.609 111.068 336.345 111.092C338.08 111.116 339.782 110.61 341.224 109.642C342.666 108.673 343.779 107.287 344.416 105.669C345.052 104.051 345.183 102.277 344.789 100.582C344.395 98.8883 343.496 97.3545 342.211 96.185C340.926 95.0154 339.316 94.2656 337.596 94.0353C335.875 93.8049 334.125 94.1049 332.579 94.8954C331.033 95.6858 329.764 96.9294 328.94 98.4605Z" fill="#FFB8B8"/>
<path d="M272.849 120.338L250.389 97.83C249.365 96.8075 248.553 95.5927 247.998 94.2551C247.443 92.9175 247.157 91.4835 247.156 90.0349C247.155 88.5864 247.438 87.1518 247.991 85.8133C248.543 84.4748 249.354 83.2586 250.376 82.2344C251.398 81.2101 252.612 80.3978 253.947 79.8441C255.283 79.2903 256.714 79.0059 258.16 79.0072C259.605 79.0084 261.036 79.2953 262.371 79.8513C263.706 80.4073 264.918 81.2217 265.938 82.2477L288.398 104.756C288.738 105.097 289.008 105.501 289.192 105.947C289.376 106.393 289.471 106.87 289.471 107.352C289.471 107.835 289.376 108.312 289.192 108.758C289.008 109.203 288.738 109.608 288.398 109.949L278.032 120.338C277.344 121.026 276.412 121.412 275.44 121.412C274.469 121.412 273.537 121.025 272.849 120.338Z" fill="#CCCCCC"/>
</g>
<defs>
<clipPath id="clip0_5_25">
<rect width="973" height="705" fill="white"/>
</clipPath>
</defs>
</svg>
