<svg width="74" height="75" viewBox="0 0 74 75" fill="none" xmlns="http://www.w3.org/2000/svg">
<g clip-path="url(#clip0_13_649)">
<path d="M37.232 8.34788e-07C22.0833 0.00950977 7.91191 9.70062 2.38154 23.7822C-3.08172 37.6929 1.09323 55.1278 12.4585 64.8811C24.0032 74.7884 41.3039 77.0437 54.725 69.6204C67.9887 62.2842 75.767 46.9154 73.6567 31.9243C72.4209 23.1458 67.919 14.6651 61.0476 9.00126C53.8928 3.10379 44.7011 -0.0730829 35.4108 0.494411C31.0494 0.760825 31.0191 7.58401 35.4108 7.31574C49.194 6.4738 61.9549 15.1352 65.9368 28.4304C69.551 40.4983 65.0114 53.6593 55.0365 61.3002C45.105 68.9079 31.1713 68.9913 20.6555 62.4935C10.0455 55.9375 4.84886 42.5089 7.49897 30.4151C10.485 16.7882 23.36 6.83004 37.232 6.82133C41.6211 6.81858 41.6286 -0.00275498 37.232 8.34788e-07Z" fill="#01010C"/>
<path d="M19.3942 49.4336C23.9425 54.0683 30.2512 56.6958 36.7269 56.8785C43.5198 57.0702 49.9789 54.2832 54.6934 49.4337C57.7552 46.2843 52.9368 41.4557 49.87 44.6103C46.3382 48.2432 41.7675 50.1994 36.7269 50.0572C32.0536 49.9253 27.5163 47.9716 24.2176 44.6102C21.1379 41.4718 16.3156 46.2964 19.3942 49.4336Z" fill="#01010C"/>
<path d="M25.468 21.938C24.7722 22.1156 24.2118 22.4795 23.6953 22.9662C23.4548 23.1929 23.242 23.4699 23.0829 23.761C22.9973 23.9178 22.9521 24.0518 22.8733 24.2385C22.817 24.3718 22.7119 24.5774 22.6646 24.7464C22.5687 25.0896 22.5122 25.4584 22.5179 25.8119C22.5185 25.848 22.521 25.8823 22.5231 25.9186C22.5375 26.1671 22.5869 26.6405 22.6545 26.8778C22.7431 27.1894 22.8961 27.5416 23.0464 27.8261C23.2136 28.1425 23.4499 28.4284 23.6932 28.6872C23.9847 28.9974 24.3362 29.2772 24.7234 29.457C25.0262 29.5977 25.3544 29.7674 25.6816 29.8468C25.8557 29.8891 26.0621 29.9038 26.2234 29.9255C26.3989 29.9491 26.6163 29.9931 26.8085 29.9973C27.2762 30.0074 27.7658 29.9391 28.2105 29.7893C28.6011 29.6578 29.1019 29.4666 29.4732 29.2192C30.1967 28.7369 30.9137 28.1148 31.2927 27.3116C31.6298 26.5971 31.835 26.0377 31.8261 25.224C31.8243 25.0636 31.7689 24.7711 31.7603 24.7075C31.7407 24.561 31.7236 24.3329 31.6822 24.1604C31.5974 23.8074 31.441 23.4537 31.261 23.145C31.2399 23.1088 31.2175 23.076 31.1945 23.0413C31.0396 22.8079 30.8105 22.5093 30.6227 22.3025C30.3899 22.0463 30.0473 21.8214 29.7989 21.6384C29.7394 21.5945 29.6817 21.5524 29.616 21.5176C29.4606 21.4354 29.274 21.3682 29.124 21.3049C28.957 21.2344 28.7688 21.1404 28.5858 21.0865C27.689 20.8222 26.6257 20.8657 25.7347 21.1255C25.6496 21.1503 25.5671 21.1809 25.4847 21.2132C25.152 21.3437 24.8075 21.4736 24.4905 21.6413C24.4227 21.6772 24.3569 21.717 24.2939 21.7608C23.9973 21.9665 23.6907 22.1923 23.4241 22.4366C23.3589 22.4962 23.3021 22.5617 23.2461 22.6297C23.0303 22.8915 22.7939 23.1636 22.6206 23.4574C22.3911 23.8466 22.1967 24.2882 22.1075 24.7352C22.0482 25.0326 21.9987 25.405 21.9771 25.7069C21.9739 25.7506 21.9704 25.7933 21.9707 25.8373C21.9732 26.1836 22.0415 26.5684 22.1066 26.9062C22.1496 27.1291 22.2454 27.3104 22.3368 27.5269C22.4246 27.735 22.4952 27.9455 22.6162 28.135C22.9849 28.7124 23.2348 28.9601 23.727 29.3403C24.2651 29.7561 24.5438 29.8952 25.2365 30.1567C25.5185 30.2632 25.7823 30.2869 26.0875 30.3279C26.4371 30.3749 26.7338 30.4248 27.0788 30.386C27.5413 30.3339 28.0208 30.2938 28.4679 30.1517C28.9316 30.0044 29.3784 29.7952 29.8217 29.5982C30.1396 29.4569 30.4579 29.3056 30.7432 29.1047C31.0831 28.8655 31.4399 28.6166 31.7356 28.3204C31.8857 28.17 32.0096 27.9884 32.1377 27.8227C32.2647 27.6583 32.4272 27.4799 32.5273 27.2868C32.8912 26.5852 33.0602 25.976 33.1064 25.1872C33.1331 24.7313 33.0723 24.2488 32.9132 23.8204C32.6336 23.0675 32.3706 22.571 31.8095 21.973C31.5026 21.6459 31.1276 21.3566 30.7309 21.1465C30.3482 20.9438 29.9176 20.7331 29.4822 20.649C29.1088 20.5769 28.7112 20.5172 28.3304 20.4986C28.2145 20.4929 28.0983 20.4973 27.9828 20.5092C27.4765 20.5613 26.9566 20.6134 26.4653 20.7575C26.2255 20.8278 25.9916 20.9162 25.7582 21.0052C25.3144 21.1108 24.9277 21.3143 24.5983 21.6157C24.227 21.8562 23.9342 22.1752 23.7199 22.5726C23.4707 22.9641 23.3357 23.3868 23.3152 23.8407C23.2136 24.2941 23.2339 24.7474 23.3761 25.2008C23.6431 26.026 24.1546 26.8223 24.9435 27.2391L25.7582 27.5829C26.3627 27.7454 26.9671 27.7454 27.5716 27.5829C27.9641 27.4332 28.3579 27.2899 28.7742 27.2229L27.8675 27.3447C28.0747 27.3172 28.2776 27.3112 28.4855 27.3337L27.5789 27.2119C27.7228 27.2335 27.8568 27.2714 27.9914 27.3268L27.1766 26.983C27.29 27.0348 27.3946 27.0954 27.4957 27.1683L26.8055 26.635C26.9016 26.7105 26.9863 26.7923 27.0637 26.8871L26.5304 26.1968C26.5896 26.2767 26.6382 26.3582 26.6794 26.4485L26.3355 25.6338C26.3641 25.7074 26.385 25.7796 26.3998 25.8572L26.278 24.9505C26.2907 25.0504 26.2903 25.1451 26.2779 25.2449L26.3997 24.3382C26.3859 24.4136 26.3666 24.4845 26.3402 24.5566L26.6841 23.7418C26.6389 23.8476 26.5828 23.9423 26.5143 24.0347L27.0476 23.3444C26.9473 23.4688 26.8339 23.5759 26.7088 23.6752L27.3991 23.1419C27.0462 23.4084 26.6418 23.5966 26.2369 23.7698L27.0517 23.4259C26.7666 23.5438 26.4778 23.6396 26.1721 23.6865L27.0788 23.5647C26.8981 23.5865 26.7214 23.591 26.5408 23.5675L27.4475 23.6893C27.3097 23.6664 27.1797 23.6306 27.0499 23.5791L27.8646 23.9229C27.7384 23.8673 27.6243 23.8011 27.5149 23.717L28.2052 24.2503C28.1316 24.1883 28.0666 24.1225 28.0062 24.0477L28.5395 24.738C28.4827 24.6597 28.4371 24.5801 28.3987 24.4915L28.7426 25.3062C28.7129 25.2253 28.6928 25.1457 28.679 25.0607L28.8009 25.9673C28.79 25.8568 28.7924 25.7518 28.807 25.6419L28.6852 26.5486C28.7058 26.4388 28.7364 26.3362 28.7786 26.2329L28.4348 27.0477C28.4821 26.9461 28.5369 26.8533 28.6027 26.7628L28.0694 27.4531C28.1528 27.3496 28.2442 27.2593 28.3475 27.1755L27.6573 27.7088C27.7994 27.6023 27.9499 27.5175 28.1128 27.447L27.2981 27.7908C27.494 27.7128 27.6942 27.6592 27.9026 27.6268L26.9959 27.7487C27.1502 27.7302 27.3003 27.7262 27.4552 27.7407L26.5485 27.6189C26.6716 27.6368 26.7874 27.6652 26.9032 27.7106L26.0884 27.3668C26.1853 27.4113 26.2718 27.4635 26.356 27.5284L25.6657 26.9951C25.7295 27.0505 25.7852 27.1083 25.8377 27.1744L25.3044 26.4842C25.3404 26.5362 25.3702 26.5863 25.3986 26.6428L25.0547 25.8281C25.0873 25.9072 25.1085 25.983 25.1217 26.0675L24.9999 25.1608C25.0048 25.2254 25.0047 25.2842 24.9996 25.3488L25.1215 24.4421C25.1086 24.5262 25.0881 24.6037 25.0587 24.6835L25.4026 23.8687C25.3588 23.9688 25.3062 24.0589 25.2428 24.1476L25.7761 23.4573C25.6787 23.5813 25.5708 23.6874 25.4475 23.7856L26.1378 23.2523C25.9859 23.3648 25.8245 23.4558 25.6505 23.5297L26.4652 23.1858C26.3508 23.2292 26.2373 23.2617 26.117 23.2834L27.0237 23.1615C26.9064 23.1762 26.7939 23.1788 26.6767 23.1651L27.5834 23.2869C27.503 23.2725 27.428 23.2518 27.3515 23.2232L28.1662 23.567C28.0918 23.534 28.0243 23.4963 27.9573 23.45L28.6476 23.9833C28.5844 23.9332 28.5304 23.8806 28.4792 23.8184L29.0125 24.5086C28.9776 24.4587 28.95 24.4116 28.9236 24.3567L29.2674 25.1714C29.2468 25.1171 29.2329 25.069 29.2225 25.0119L29.3444 25.9186C29.3393 25.8633 29.3391 25.8137 29.3433 25.7584L29.2215 26.6651C29.2329 26.5925 29.2511 26.5272 29.2789 26.4593L28.9351 27.274C28.9598 27.2251 28.9854 27.183 29.0177 27.1387L28.4844 27.829C28.52 27.7881 28.5542 27.7552 28.5967 27.7214L27.9064 28.2547C27.9345 28.2345 27.9643 28.2174 27.996 28.2034L27.1812 28.5472C27.2134 28.533 27.2468 28.5225 27.2813 28.5157C27.7251 28.4102 28.1118 28.2067 28.4412 27.9052C28.8125 27.6647 29.1053 27.3458 29.3196 26.9483C29.5688 26.5568 29.7037 26.1341 29.7243 25.6802C29.8259 25.2269 29.8055 24.7735 29.6634 24.3202C29.3963 23.4949 28.8849 22.6987 28.096 22.2819C27.2751 21.8481 26.3816 21.7049 25.468 21.938Z" fill="#01010C"/>
<path d="M44.696 21.938C44.0003 22.1156 43.4398 22.4795 42.9234 22.9662C42.6828 23.1929 42.4701 23.4699 42.311 23.761C42.2253 23.9178 42.1801 24.0518 42.1013 24.2385C42.045 24.3718 41.9399 24.5774 41.8927 24.7464C41.7967 25.0896 41.7402 25.4584 41.746 25.8119C41.7466 25.848 41.749 25.8823 41.7511 25.9186C41.7656 26.1671 41.815 26.6405 41.8825 26.8778C41.9711 27.1894 42.1241 27.5416 42.2744 27.8261C42.4416 28.1425 42.6779 28.4284 42.9212 28.6872C43.2128 28.9974 43.5642 29.2772 43.9515 29.457C44.2543 29.5977 44.5825 29.7674 44.9097 29.8468C45.0837 29.8891 45.2901 29.9038 45.4514 29.9255C45.6269 29.9491 45.8443 29.9931 46.0365 29.9973C46.5043 30.0074 46.9938 29.9391 47.4386 29.7893C47.8291 29.6578 48.33 29.4666 48.7012 29.2192C49.4248 28.7369 50.1417 28.1148 50.5207 27.3116C50.8579 26.5971 51.063 26.0377 51.0541 25.224C51.0523 25.0636 50.9969 24.7711 50.9884 24.7075C50.9687 24.561 50.9517 24.3329 50.9103 24.1604C50.8255 23.8074 50.669 23.4537 50.4891 23.145C50.4679 23.1088 50.4455 23.076 50.4225 23.0413C50.2676 22.8079 50.0385 22.5093 49.8507 22.3025C49.618 22.0463 49.2753 21.8214 49.0269 21.6384C48.9674 21.5945 48.9098 21.5524 48.844 21.5176C48.6887 21.4354 48.502 21.3682 48.352 21.3049C48.185 21.2344 47.9968 21.1404 47.8138 21.0865C46.917 20.8222 45.8538 20.8657 44.9627 21.1255C44.8776 21.1503 44.7951 21.1809 44.7128 21.2132C44.3801 21.3437 44.0356 21.4736 43.7186 21.6413C43.6507 21.6772 43.585 21.717 43.5219 21.7608C43.2253 21.9665 42.9187 22.1923 42.6521 22.4366C42.587 22.4962 42.5301 22.5617 42.4741 22.6297C42.2584 22.8915 42.0219 23.1636 41.8486 23.4574C41.6191 23.8466 41.4247 24.2882 41.3355 24.7352C41.2762 25.0326 41.2267 25.405 41.2051 25.7069C41.202 25.7506 41.1984 25.7933 41.1988 25.8373C41.2012 26.1836 41.2695 26.5684 41.3346 26.9062C41.3776 27.1291 41.4735 27.3104 41.5649 27.5269C41.6526 27.735 41.7233 27.9455 41.8443 28.135C42.2129 28.7124 42.4629 28.9601 42.955 29.3403C43.4932 29.7561 43.7718 29.8952 44.4646 30.1567C44.7465 30.2632 45.0103 30.2869 45.3155 30.3279C45.6651 30.3749 45.9619 30.4248 46.3068 30.386C46.7694 30.3339 47.2488 30.2938 47.696 30.1517C48.1596 30.0044 48.6064 29.7952 49.0498 29.5982C49.3677 29.4569 49.6859 29.3056 49.9712 29.1047C50.3111 28.8655 50.6679 28.6166 50.9636 28.3204C51.1138 28.17 51.2377 27.9884 51.3657 27.8227C51.4927 27.6583 51.6553 27.4799 51.7554 27.2868C52.1192 26.5852 52.2882 25.976 52.3344 25.1872C52.3611 24.7313 52.3003 24.2488 52.1412 23.8204C51.8616 23.0675 51.5986 22.571 51.0375 21.973C50.7306 21.6459 50.3556 21.3566 49.9589 21.1465C49.5763 20.9438 49.1456 20.7331 48.7102 20.649C48.3369 20.5769 47.9392 20.5172 47.5585 20.4986C47.4425 20.4929 47.3263 20.4973 47.2109 20.5092C46.7045 20.5613 46.1846 20.6134 45.6934 20.7575C45.4535 20.8278 45.2196 20.9162 44.9862 21.0052C44.5424 21.1108 44.1558 21.3143 43.8264 21.6157C43.4551 21.8562 43.1622 22.1752 42.9479 22.5726C42.6987 22.9641 42.5638 23.3868 42.5432 23.8407C42.4417 24.2941 42.462 24.7474 42.6041 25.2008C42.8712 26.026 43.3826 26.8223 44.1715 27.2391L44.9862 27.5829C45.5907 27.7454 46.1952 27.7454 46.7996 27.5829C47.1921 27.4332 47.5859 27.2899 48.0022 27.2229L47.0955 27.3447C47.3027 27.3172 47.5056 27.3112 47.7136 27.3337L46.8069 27.2119C46.9508 27.2335 47.0848 27.2714 47.2194 27.3268L46.4047 26.983C46.518 27.0348 46.6227 27.0954 46.7238 27.1683L46.0335 26.635C46.1296 26.7105 46.2144 26.7923 46.2918 26.8871L45.7585 26.1968C45.8176 26.2767 45.8663 26.3582 45.9074 26.4485L45.5636 25.6338C45.5921 25.7074 45.613 25.7796 45.6279 25.8572L45.506 24.9505C45.5187 25.0504 45.5183 25.1451 45.5059 25.2449L45.6278 24.3382C45.6139 24.4136 45.5946 24.4845 45.5683 24.5566L45.9121 23.7418C45.8669 23.8476 45.8109 23.9423 45.7423 24.0347L46.2756 23.3444C46.1753 23.4688 46.0619 23.5759 45.9368 23.6752L46.6271 23.1419C46.2742 23.4084 45.8699 23.5966 45.465 23.7698L46.2797 23.4259C45.9946 23.5438 45.7058 23.6396 45.4001 23.6865L46.3068 23.5647C46.1261 23.5865 45.9494 23.591 45.7688 23.5675L46.6755 23.6893C46.5377 23.6664 46.4078 23.6306 46.2779 23.5791L47.0927 23.9229C46.9664 23.8673 46.8523 23.8011 46.7429 23.717L47.4332 24.2503C47.3596 24.1883 47.2946 24.1225 47.2342 24.0477L47.7675 24.738C47.7107 24.6597 47.6651 24.5801 47.6268 24.4915L47.9706 25.3062C47.941 25.2253 47.9208 25.1457 47.9071 25.0607L48.0289 25.9673C48.018 25.8568 48.0204 25.7518 48.035 25.6419L47.9132 26.5486C47.9338 26.4388 47.9644 26.3362 48.0066 26.2329L47.6628 27.0477C47.7102 26.9461 47.7649 26.8533 47.8307 26.7628L47.2974 27.4531C47.3808 27.3496 47.4722 27.2593 47.5756 27.1755L46.8853 27.7088C47.0274 27.6023 47.1779 27.5175 47.3408 27.447L46.5261 27.7908C46.7221 27.7128 46.9222 27.6592 47.1306 27.6268L46.224 27.7487C46.3783 27.7302 46.5283 27.7262 46.6832 27.7407L45.7765 27.6189C45.8997 27.6368 46.0154 27.6652 46.1312 27.7106L45.3165 27.3668C45.4133 27.4113 45.4998 27.4635 45.584 27.5284L44.8938 26.9951C44.9575 27.0505 45.0132 27.1083 45.0657 27.1744L44.5324 26.4842C44.5684 26.5362 44.5982 26.5863 44.6266 26.6428L44.2828 25.8281C44.3154 25.9072 44.3365 25.983 44.3497 26.0675L44.2279 25.1608C44.2328 25.2254 44.2327 25.2842 44.2277 25.3488L44.3495 24.4421C44.3366 24.5262 44.3161 24.6037 44.2868 24.6835L44.6306 23.8687C44.5868 23.9688 44.5342 24.0589 44.4708 24.1476L45.0041 23.4573C44.9068 23.5813 44.7988 23.6874 44.6755 23.7856L45.3658 23.2523C45.2139 23.3648 45.0525 23.4558 44.8785 23.5297L45.6932 23.1858C45.5788 23.2292 45.4654 23.2617 45.345 23.2834L46.2517 23.1615C46.1345 23.1762 46.022 23.1788 45.9047 23.1651L46.8114 23.2869C46.731 23.2725 46.656 23.2518 46.5795 23.2232L47.3943 23.567C47.3198 23.534 47.2523 23.4963 47.1853 23.45L47.8756 23.9833C47.8125 23.9332 47.7584 23.8806 47.7073 23.8184L48.2406 24.5086C48.2056 24.4587 48.178 24.4116 48.1516 24.3567L48.4955 25.1714C48.4749 25.1171 48.4609 25.069 48.4506 25.0119L48.5724 25.9186C48.5674 25.8633 48.5671 25.8137 48.5713 25.7584L48.4495 26.6651C48.4609 26.5925 48.4791 26.5272 48.507 26.4593L48.1632 27.274C48.1878 27.2251 48.2134 27.183 48.2457 27.1387L47.7124 27.829C47.748 27.7881 47.7822 27.7552 47.8247 27.7214L47.1344 28.2547C47.1625 28.2345 47.1924 28.2174 47.224 28.2034L46.4093 28.5472C46.4414 28.533 46.4748 28.5225 46.5093 28.5157C46.9531 28.4102 47.3398 28.2067 47.6692 27.9052C48.0405 27.6647 48.3333 27.3458 48.5476 26.9483C48.7969 26.5568 48.9318 26.1341 48.9524 25.6802C49.0539 25.2269 49.0336 24.7735 48.8914 24.3202C48.6244 23.4949 48.1129 22.6987 47.324 22.2819C46.5031 21.8481 45.6096 21.7049 44.696 21.938Z" fill="#01010C"/>
</g>
<defs>
<clipPath id="clip0_13_649">
<rect width="74" height="74.0124" fill="white"/>
</clipPath>
</defs>
</svg>
